<svg width="201" height="214" viewBox="0 0 201 214" fill="none" xmlns="http://www.w3.org/2000/svg">
<path d="M0.713672 210V207H14.8137V2.99998H0.713672V-1.43051e-05H93.7137V50.1H90.7137C90.7137 42 89.3637 34.35 86.6637 27.15C84.0637 19.95 80.3637 14.15 75.5637 9.74999C70.8637 5.24999 65.3637 2.99998 59.0637 2.99998H51.1137V103.35H78.8637V85.35H81.8637V124.05H78.8637V106.35H51.1137V207H58.7637C65.0637 207 70.6137 204.75 75.4137 200.25C80.2137 195.65 83.9637 189.75 86.6637 182.55C89.3637 175.25 90.7137 167.55 90.7137 159.45H93.7137V210H0.713672ZM141.425 213.45C133.825 213.45 127.425 211.5 122.225 207.6C117.125 203.6 113.275 198.45 110.675 192.15C108.075 185.75 106.775 178.8 106.775 171.3C106.775 164.5 108.125 159.65 110.825 156.75C113.625 153.75 117.175 152.25 121.475 152.25C125.575 152.25 128.925 153.75 131.525 156.75C134.225 159.65 135.575 164.35 135.575 170.85C135.575 175.15 134.625 179.1 132.725 182.7C130.825 186.2 128.925 189.35 127.025 192.15C125.125 194.95 124.175 197.45 124.175 199.65C124.175 203.05 125.525 205.5 128.225 207C131.025 208.5 133.925 209.25 136.925 209.25C141.025 209.25 144.075 206.85 146.075 202.05C148.175 197.25 149.225 189.2 149.225 177.9V2.99998H133.625V-1.43051e-05H200.225V2.99998H185.225V145.95C185.225 160.25 183.575 171.85 180.275 180.75C176.975 189.65 172.875 196.5 167.975 201.3C163.175 206 158.325 209.2 153.425 210.9C148.625 212.6 144.625 213.45 141.425 213.45Z" fill="white"/>
</svg>
