<svg width="1080" height="1080" viewBox="0 0 1080 1080" fill="none" xmlns="http://www.w3.org/2000/svg">
<g clip-path="url(#clip0_14_40)">
<path d="M1080 540C1080 241.766 838.234 0 540 0C241.766 0 0 241.766 0 540C0 838.234 241.766 1080 540 1080C838.234 1080 1080 838.234 1080 540Z" fill="black"/>
<path d="M253 837.076V828.446H293.496V241.63H253V233H520.098V377.115H511.482C511.482 353.815 507.604 331.81 499.85 311.098C492.383 290.387 481.756 273.703 467.971 261.046C454.472 248.102 438.676 241.63 420.582 241.63H397.75V530.292H477.448V478.514H486.064V589.836H477.448V538.921H397.75V828.446H419.721C437.814 828.446 453.754 821.974 467.54 809.03C481.325 795.797 492.096 778.826 499.85 758.115C507.604 737.116 511.482 714.966 511.482 691.666H520.098V837.076H253ZM657.125 847C635.298 847 616.917 841.391 601.983 830.172C587.335 818.666 576.278 803.852 568.811 785.729C561.344 767.319 557.61 747.327 557.61 725.753C557.61 706.193 561.487 692.242 569.242 683.9C577.283 675.27 587.479 670.955 599.829 670.955C611.604 670.955 621.225 675.27 628.692 683.9C636.447 692.242 640.324 705.761 640.324 724.459C640.324 736.828 637.596 748.19 632.139 758.546C626.682 768.614 621.225 777.675 615.768 785.729C610.311 793.784 607.583 800.975 607.583 807.304C607.583 817.084 611.46 824.131 619.215 828.446C627.256 832.761 635.585 834.918 644.201 834.918C655.977 834.918 664.736 828.015 670.48 814.207C676.511 800.4 679.527 777.244 679.527 744.739V241.63H634.724V233H826V241.63H782.92V652.833C782.92 693.967 778.181 727.335 768.703 752.937C759.226 778.538 747.45 798.242 733.377 812.05C719.592 825.57 705.662 834.775 691.59 839.665C677.804 844.555 666.316 847 657.125 847Z" fill="white"/>
</g>
<defs>
<clipPath id="clip0_14_40">
<rect width="1080" height="1080" fill="white"/>
</clipPath>
</defs>
</svg>
