<svg width="746" height="280" viewBox="0 0 746 280" fill="none" xmlns="http://www.w3.org/2000/svg">
<path d="M46.5148 190V188H55.9148V52H46.5148V50H108.515V83.4H106.515C106.515 78 105.615 72.9 103.815 68.1C102.082 63.3 99.6148 59.4333 96.4148 56.5C93.2815 53.5 89.6148 52 85.4148 52H80.1148V118.9H98.6148V106.9H100.615V132.7H98.6148V120.9H80.1148V188H85.2148C89.4148 188 93.1148 186.5 96.3148 183.5C99.5148 180.433 102.015 176.5 103.815 171.7C105.615 166.833 106.515 161.7 106.515 156.3H108.515V190H46.5148ZM116.523 190V188H123.823V87.3H116.523V85.3H147.823V100.4C148.423 98 149.256 95.6 150.323 93.2C151.456 90.8 153.156 88.8 155.423 87.2C157.756 85.5333 161.023 84.7 165.223 84.7C169.089 84.7 172.456 85.5667 175.323 87.3C178.256 89.0333 180.556 91.4333 182.223 94.5C183.889 97.5667 184.789 101.167 184.923 105.3C185.589 101.233 186.556 97.6667 187.823 94.6C189.089 91.5333 190.923 89.1333 193.323 87.4C195.789 85.6 199.223 84.7 203.623 84.7C209.489 84.7 214.389 86.9 218.323 91.3C222.323 95.6333 224.323 102.133 224.323 110.8V188H231.623V190H194.023V188H200.323V122C200.323 115.267 200.189 109.5 199.923 104.7C199.723 99.9 199.223 96.2333 198.423 93.7C197.623 91.1 196.389 89.8 194.723 89.8C193.189 89.8 191.756 91.0667 190.423 93.6C189.089 96.0667 187.989 99.1 187.123 102.7C186.256 106.3 185.789 109.7 185.723 112.9V188H192.023V190H155.823V188H161.723V122C161.723 111.867 161.423 103.967 160.823 98.3C160.223 92.6333 158.623 89.8 156.023 89.8C154.556 89.8 153.223 91.1333 152.023 93.8C150.823 96.4667 149.823 99.5667 149.023 103.1C148.289 106.567 147.889 109.567 147.823 112.1V188H154.023V190H116.523ZM232.21 240V238H240.91V87.3H232.21V85.3H265.11V99.1C265.643 97.3 266.41 95.3 267.41 93.1C268.477 90.8333 270.01 88.8667 272.01 87.2C274.01 85.5333 276.677 84.7 280.01 84.7C284.543 84.7 288.743 86.5 292.61 90.1C296.477 93.7 299.61 99.4333 302.01 107.3C304.41 115.167 305.61 125.467 305.61 138.2C305.61 151.867 304.343 162.633 301.81 170.5C299.277 178.3 295.943 183.833 291.81 187.1C287.677 190.367 283.21 192 278.41 192C275.477 192 273.11 191.267 271.31 189.8C269.577 188.333 268.243 186.6 267.31 184.6C266.377 182.533 265.743 180.667 265.41 179V238H274.51V240H232.21ZM274.51 188.8C275.777 188.8 276.843 187.433 277.71 184.7C278.577 181.967 279.277 178.267 279.81 173.6C280.41 168.933 280.843 163.6 281.11 157.6C281.377 151.533 281.51 145.167 281.51 138.5C281.51 132.3 281.377 126.267 281.11 120.4C280.843 114.467 280.443 109.133 279.91 104.4C279.377 99.6 278.677 95.8 277.81 93C276.943 90.2 275.91 88.8 274.71 88.8C273.243 88.8 271.877 89.7667 270.61 91.7C269.343 93.6333 268.243 96.1333 267.31 99.2C266.443 102.2 265.81 105.333 265.41 108.6V167.1C265.477 170.767 265.977 174.267 266.91 177.6C267.843 180.933 268.977 183.633 270.31 185.7C271.71 187.767 273.11 188.8 274.51 188.8ZM348.579 192.2C344.979 192.2 341.246 191.067 337.379 188.8C333.579 186.533 330.012 183.133 326.679 178.6C323.412 174 320.746 168.267 318.679 161.4C316.612 154.533 315.579 146.5 315.579 137.3C315.579 127.3 316.646 118.933 318.779 112.2C320.912 105.4 323.646 100 326.979 96C330.379 91.9333 333.979 89.0333 337.779 87.3C341.646 85.5667 345.279 84.7 348.679 84.7C352.079 84.7 355.679 85.5667 359.479 87.3C363.346 89.0333 366.979 91.9333 370.379 96C373.779 100 376.546 105.4 378.679 112.2C380.812 118.933 381.879 127.3 381.879 137.3C381.879 146.5 380.846 154.533 378.779 161.4C376.779 168.267 374.112 174 370.779 178.6C367.446 183.133 363.846 186.533 359.979 188.8C356.112 191.067 352.312 192.2 348.579 192.2ZM348.679 190.4C351.812 190.4 354.012 185.733 355.279 176.4C356.546 167.067 357.179 154.033 357.179 137.3C357.179 120.9 356.546 108.333 355.279 99.6C354.012 90.8667 351.812 86.5 348.679 86.5C345.546 86.5 343.346 90.8667 342.079 99.6C340.879 108.333 340.279 120.9 340.279 137.3C340.279 154.033 340.879 167.067 342.079 176.4C343.346 185.733 345.546 190.4 348.679 190.4ZM388.188 190V188H396.888V87.3H388.188V85.3H420.888V97.7C421.155 96.5667 421.855 94.9667 422.988 92.9C424.122 90.8333 425.655 88.9667 427.588 87.3C429.588 85.5667 431.888 84.7 434.488 84.7C438.022 84.7 441.088 85.9333 443.688 88.4C446.288 90.8 448.322 94.0667 449.788 98.2C451.322 102.267 452.088 106.8 452.088 111.8C452.088 116.067 451.255 119.367 449.588 121.7C447.988 124.033 445.722 125.2 442.788 125.2C439.988 125.2 437.788 124.067 436.188 121.8C434.588 119.533 433.788 116.7 433.788 113.3C433.788 110.967 434.255 108.8 435.188 106.8C436.122 104.8 437.022 102.9 437.888 101.1C438.822 99.2333 439.288 97.4 439.288 95.6C439.288 92.8 438.788 90.6667 437.788 89.2C436.855 87.6667 435.355 86.9 433.288 86.9C431.022 86.9 428.955 88.0667 427.088 90.4C425.222 92.7333 423.722 95.7 422.588 99.3C421.455 102.9 420.888 106.633 420.888 110.5V188H429.988V190H388.188ZM455.757 190V188H464.657V87.3H455.757V85.3H488.657V188H497.757V190H455.757ZM476.657 71.7C472.457 71.7 468.857 70.2333 465.857 67.3C462.924 64.3667 461.457 60.7667 461.457 56.5C461.457 52.3667 462.924 48.8333 465.857 45.9C468.857 42.9667 472.457 41.5 476.657 41.5C480.79 41.5 484.324 42.9667 487.257 45.9C490.19 48.8333 491.657 52.3667 491.657 56.5C491.657 60.7667 490.19 64.3667 487.257 67.3C484.324 70.2333 480.79 71.7 476.657 71.7ZM533.765 192.2C528.698 192.2 524.332 191.333 520.665 189.6C517.065 187.867 514.265 184.8 512.265 180.4C510.332 175.933 509.365 169.7 509.365 161.7V87.4H502.465V85.4H533.365V159.3C533.365 166.7 533.532 172.6 533.865 177C534.198 181.333 534.798 184.433 535.665 186.3C536.532 188.167 537.732 189.1 539.265 189.1C541.132 189.1 542.765 188.067 544.165 186C545.632 183.933 546.765 181.5 547.565 178.7C548.432 175.833 548.865 173.3 548.865 171.1V87.4H541.865V85.4H572.865V188H580.065V190H549.165V178.6C548.698 180.667 547.932 182.767 546.865 184.9C545.865 186.967 544.332 188.7 542.265 190.1C540.198 191.5 537.365 192.2 533.765 192.2ZM585.273 190V188H592.573V87.3H585.273V85.3H616.573V100.4C617.173 98 618.006 95.6 619.073 93.2C620.206 90.8 621.906 88.8 624.173 87.2C626.506 85.5333 629.773 84.7 633.973 84.7C637.839 84.7 641.206 85.5667 644.073 87.3C647.006 89.0333 649.306 91.4333 650.973 94.5C652.639 97.5667 653.539 101.167 653.673 105.3C654.339 101.233 655.306 97.6667 656.573 94.6C657.839 91.5333 659.673 89.1333 662.073 87.4C664.539 85.6 667.973 84.7 672.373 84.7C678.239 84.7 683.139 86.9 687.073 91.3C691.073 95.6333 693.073 102.133 693.073 110.8V188H700.373V190H662.773V188H669.073V122C669.073 115.267 668.939 109.5 668.673 104.7C668.473 99.9 667.973 96.2333 667.173 93.7C666.373 91.1 665.139 89.8 663.473 89.8C661.939 89.8 660.506 91.0667 659.173 93.6C657.839 96.0667 656.739 99.1 655.873 102.7C655.006 106.3 654.539 109.7 654.473 112.9V188H660.773V190H624.573V188H630.473V122C630.473 111.867 630.173 103.967 629.573 98.3C628.973 92.6333 627.373 89.8 624.773 89.8C623.306 89.8 621.973 91.1333 620.773 93.8C619.573 96.4667 618.573 99.5667 617.773 103.1C617.039 106.567 616.639 109.567 616.573 112.1V188H622.773V190H585.273Z" fill="white"/>
<path d="M423.05 260.8C421.077 260.8 419.237 260.147 417.53 258.84C415.85 257.533 414.49 255.32 413.45 252.2C412.41 249.053 411.89 244.747 411.89 239.28C411.89 234.187 412.384 230.067 413.37 226.92C414.384 223.747 415.69 221.44 417.29 220C418.917 218.56 420.624 217.84 422.41 217.84C423.85 217.84 424.97 218.213 425.77 218.96C426.57 219.68 427.144 220.467 427.49 221.32C427.864 222.147 428.09 222.747 428.17 223.12V201.36H424.21V200H437.97V258.72H442.21V260H428.69L428.49 255.24C428.41 255.827 428.17 256.56 427.77 257.44C427.397 258.32 426.824 259.107 426.05 259.8C425.304 260.467 424.304 260.8 423.05 260.8ZM424.57 258.6C425.21 258.6 425.784 258.213 426.29 257.44C426.824 256.667 427.25 255.64 427.57 254.36C427.917 253.08 428.117 251.693 428.17 250.2V228.28C428.09 226.973 427.864 225.72 427.49 224.52C427.117 223.293 426.677 222.293 426.17 221.52C425.664 220.747 425.13 220.36 424.57 220.36C423.984 220.36 423.504 220.907 423.13 222C422.784 223.093 422.504 224.56 422.29 226.4C422.104 228.213 421.957 230.253 421.85 232.52C421.77 234.787 421.73 237.08 421.73 239.4C421.73 241.88 421.77 244.267 421.85 246.56C421.93 248.853 422.077 250.907 422.29 252.72C422.504 254.533 422.797 255.973 423.17 257.04C423.544 258.08 424.01 258.6 424.57 258.6ZM457.501 260.88C456.034 260.88 454.528 260.427 452.981 259.52C451.434 258.613 449.994 257.253 448.661 255.44C447.354 253.6 446.288 251.307 445.461 248.56C444.661 245.813 444.261 242.6 444.261 238.92C444.261 234.92 444.674 231.56 445.501 228.84C446.354 226.12 447.448 223.96 448.781 222.36C450.114 220.733 451.554 219.573 453.101 218.88C454.648 218.16 456.114 217.8 457.501 217.8C458.914 217.8 460.394 218.16 461.941 218.88C463.488 219.573 464.941 220.733 466.301 222.36C467.661 223.96 468.754 226.12 469.581 228.84C470.434 231.56 470.861 234.92 470.861 238.92C470.861 242.6 470.448 245.813 469.621 248.56C468.821 251.307 467.754 253.6 466.421 255.44C465.114 257.253 463.674 258.613 462.101 259.52C460.554 260.427 459.021 260.88 457.501 260.88ZM457.501 259.56C458.754 259.56 459.648 257.787 460.181 254.24C460.741 250.693 461.021 245.587 461.021 238.92C461.021 232.36 460.741 227.427 460.181 224.12C459.648 220.787 458.754 219.12 457.501 219.12C456.301 219.12 455.434 220.787 454.901 224.12C454.368 227.427 454.101 232.36 454.101 238.92C454.101 245.587 454.368 250.693 454.901 254.24C455.434 257.787 456.301 259.56 457.501 259.56ZM490.52 279.92C488.946 279.92 487.533 279.453 486.28 278.52C485 277.613 483.986 276.373 483.24 274.8C482.493 273.227 482.12 271.453 482.12 269.48C482.12 267.747 482.48 266.427 483.2 265.52C483.893 264.613 484.826 264.16 486 264.16C487.12 264.16 487.986 264.627 488.6 265.56C489.213 266.493 489.52 267.667 489.52 269.08C489.52 269.987 489.333 270.827 488.96 271.6C488.613 272.4 488.253 273.133 487.88 273.8C487.506 274.467 487.32 275.067 487.32 275.6C487.32 276.32 487.44 276.893 487.68 277.32C487.92 277.773 488.226 278.093 488.6 278.28C488.973 278.467 489.346 278.56 489.72 278.56C491 278.56 491.893 277.773 492.4 276.2C492.906 274.627 493.16 272.147 493.16 268.76V219.4H489.4V218.12H502.76V262.04C502.76 265.613 502.386 268.56 501.64 270.88C500.893 273.2 499.906 275.013 498.68 276.32C497.48 277.653 496.16 278.587 494.72 279.12C493.306 279.653 491.906 279.92 490.52 279.92ZM497.8 212.72C496.093 212.72 494.64 212.133 493.44 210.96C492.266 209.76 491.68 208.307 491.68 206.6C491.68 204.947 492.266 203.533 493.44 202.36C494.64 201.16 496.093 200.56 497.8 200.56C499.426 200.56 500.826 201.16 502 202.36C503.2 203.533 503.8 204.947 503.8 206.6C503.8 208.307 503.2 209.76 502 210.96C500.826 212.133 499.426 212.72 497.8 212.72ZM521.485 260.88C520.019 260.88 518.512 260.427 516.965 259.52C515.419 258.613 513.979 257.253 512.645 255.44C511.339 253.6 510.272 251.307 509.445 248.56C508.645 245.813 508.245 242.6 508.245 238.92C508.245 234.92 508.659 231.56 509.485 228.84C510.339 226.12 511.432 223.96 512.765 222.36C514.099 220.733 515.539 219.573 517.085 218.88C518.632 218.16 520.099 217.8 521.485 217.8C522.899 217.8 524.379 218.16 525.925 218.88C527.472 219.573 528.925 220.733 530.285 222.36C531.645 223.96 532.739 226.12 533.565 228.84C534.419 231.56 534.845 234.92 534.845 238.92C534.845 242.6 534.432 245.813 533.605 248.56C532.805 251.307 531.739 253.6 530.405 255.44C529.099 257.253 527.659 258.613 526.085 259.52C524.539 260.427 523.005 260.88 521.485 260.88ZM521.485 259.56C522.739 259.56 523.632 257.787 524.165 254.24C524.725 250.693 525.005 245.587 525.005 238.92C525.005 232.36 524.725 227.427 524.165 224.12C523.632 220.787 522.739 219.12 521.485 219.12C520.285 219.12 519.419 220.787 518.885 224.12C518.352 227.427 518.085 232.36 518.085 238.92C518.085 245.587 518.352 250.693 518.885 254.24C519.419 257.787 520.285 259.56 521.485 259.56ZM552.4 279.92C550 279.92 547.72 279.52 545.56 278.72C543.426 277.947 541.68 276.773 540.32 275.2C538.986 273.627 538.32 271.653 538.32 269.28C538.32 267.893 538.6 266.653 539.16 265.56C539.72 264.467 540.44 263.533 541.32 262.76C542.2 262.013 543.12 261.427 544.08 261C545.066 260.6 545.986 260.373 546.84 260.32C546.653 260.293 546.2 260.147 545.48 259.88C544.76 259.587 543.973 259.173 543.12 258.64C542.266 258.107 541.52 257.44 540.88 256.64C540.24 255.813 539.92 254.84 539.92 253.72C539.92 252.6 540.226 251.68 540.84 250.96C541.453 250.24 542.16 249.707 542.96 249.36C543.786 248.987 544.493 248.787 545.08 248.76C545.16 248.733 545.253 248.72 545.36 248.72C545.493 248.72 545.573 248.733 545.6 248.76C545.253 248.52 544.733 248.093 544.04 247.48C543.373 246.84 542.693 245.973 542 244.88C541.306 243.76 540.706 242.347 540.2 240.64C539.693 238.933 539.44 236.88 539.44 234.48C539.44 231.28 539.826 228.613 540.6 226.48C541.4 224.347 542.44 222.64 543.72 221.36C545 220.08 546.4 219.173 547.92 218.64C549.466 218.08 550.973 217.8 552.44 217.8C555.16 217.8 557.466 218.427 559.36 219.68C561.253 220.907 562.693 222.72 563.68 225.12C564.693 227.52 565.2 230.467 565.2 233.96C565.2 237.373 564.773 240.187 563.92 242.4C563.093 244.587 562.013 246.293 560.68 247.52C559.373 248.747 557.973 249.6 556.48 250.08C554.986 250.533 553.6 250.76 552.32 250.76C550.746 250.76 549.493 250.6 548.56 250.28C547.653 249.96 547.08 249.733 546.84 249.6C546.813 249.573 546.773 249.56 546.72 249.56C546.693 249.56 546.64 249.56 546.56 249.56C546.106 249.56 545.493 249.747 544.72 250.12C543.946 250.493 543.56 251.08 543.56 251.88C543.56 252.84 544.453 253.693 546.24 254.44C548.026 255.16 550.706 255.853 554.28 256.52C558.306 257.24 561.413 258.467 563.6 260.2C565.813 261.933 566.92 264.627 566.92 268.28C566.92 270.52 566.44 272.387 565.48 273.88C564.52 275.4 563.293 276.587 561.8 277.44C560.333 278.32 558.76 278.947 557.08 279.32C555.4 279.72 553.84 279.92 552.4 279.92ZM552.4 278.72C554.293 278.72 555.786 277.893 556.88 276.24C557.973 274.587 558.52 272.68 558.52 270.52C558.52 268.6 558.213 267.053 557.6 265.88C557.013 264.733 556.026 263.853 554.64 263.24C554.08 262.973 553.44 262.68 552.72 262.36C552 262.067 551.306 261.787 550.64 261.52C550 261.253 549.493 261.093 549.12 261.04C548.48 261.28 547.933 261.827 547.48 262.68C547.026 263.56 546.68 264.573 546.44 265.72C546.226 266.893 546.12 268.067 546.12 269.24C546.12 270.813 546.346 272.32 546.8 273.76C547.28 275.2 547.973 276.387 548.88 277.32C549.813 278.253 550.986 278.72 552.4 278.72ZM552.32 249.44C552.906 249.44 553.44 249.08 553.92 248.36C554.4 247.64 554.773 246.187 555.04 244C555.333 241.813 555.48 238.52 555.48 234.12C555.48 229.987 555.333 226.853 555.04 224.72C554.773 222.56 554.4 221.093 553.92 220.32C553.466 219.52 552.946 219.12 552.36 219.12C551.773 219.12 551.24 219.52 550.76 220.32C550.28 221.093 549.893 222.573 549.6 224.76C549.333 226.92 549.2 230.093 549.2 234.28C549.2 238.6 549.333 241.853 549.6 244.04C549.893 246.2 550.28 247.64 550.76 248.36C551.24 249.08 551.76 249.44 552.32 249.44ZM558.24 220.72C558.426 219.093 559.08 217.68 560.2 216.48C561.32 215.253 562.666 214.64 564.24 214.64C565.36 214.64 566.2 214.933 566.76 215.52C567.346 216.08 567.64 216.867 567.64 217.88C567.64 218.893 567.386 219.667 566.88 220.2C566.373 220.733 565.68 221 564.8 221C564.106 221 563.546 220.8 563.12 220.4C562.693 220 562.306 219.613 561.96 219.24C561.64 218.84 561.266 218.64 560.84 218.64C560.52 218.64 560.213 218.827 559.92 219.2C559.653 219.547 559.52 220.053 559.52 220.72H558.24ZM579.13 260.84C577.423 260.84 575.876 260.453 574.49 259.68C573.13 258.907 572.036 257.76 571.21 256.24C570.41 254.72 570.01 252.853 570.01 250.64C570.01 248.053 570.53 245.933 571.57 244.28C572.61 242.6 573.903 241.213 575.45 240.12C576.996 239.027 578.543 238.053 580.09 237.2C581.636 236.347 582.93 235.453 583.97 234.52C585.01 233.56 585.53 232.373 585.53 230.96C585.53 228.987 585.41 227.12 585.17 225.36C584.93 223.6 584.476 222.16 583.81 221.04C583.17 219.92 582.223 219.36 580.97 219.36C579.796 219.36 578.756 219.747 577.85 220.52C576.943 221.293 576.49 222.32 576.49 223.6C576.49 224.293 576.636 224.92 576.93 225.48C577.25 226.04 577.556 226.627 577.85 227.24C578.143 227.853 578.29 228.627 578.29 229.56C578.29 230.893 577.956 231.987 577.29 232.84C576.623 233.667 575.69 234.08 574.49 234.08C573.29 234.08 572.356 233.587 571.69 232.6C571.023 231.587 570.69 230.227 570.69 228.52C570.69 226.467 571.21 224.64 572.25 223.04C573.316 221.413 574.77 220.133 576.61 219.2C578.476 218.267 580.583 217.8 582.93 217.8C585.063 217.8 587.05 218.267 588.89 219.2C590.756 220.133 592.263 221.64 593.41 223.72C594.556 225.8 595.13 228.573 595.13 232.04V255.28C595.13 256.507 595.263 257.4 595.53 257.96C595.823 258.493 596.236 258.76 596.77 258.76C597.17 258.76 597.543 258.653 597.89 258.44C598.263 258.227 598.543 258.027 598.73 257.84L599.45 258.92C599.183 259.293 598.516 259.68 597.45 260.08C596.41 260.48 595.076 260.68 593.45 260.68C592.063 260.68 590.81 260.493 589.69 260.12C588.596 259.747 587.716 259.187 587.05 258.44C586.383 257.693 586.023 256.773 585.97 255.68C585.89 256.293 585.623 257.013 585.17 257.84C584.716 258.64 584.01 259.347 583.05 259.96C582.09 260.547 580.783 260.84 579.13 260.84ZM582.61 257.8C583.17 257.8 583.663 257.56 584.09 257.08C584.543 256.6 584.89 256.013 585.13 255.32C585.396 254.627 585.53 253.947 585.53 253.28V234.08C585.45 234.827 585.116 235.627 584.53 236.48C583.943 237.307 583.276 238.293 582.53 239.44C581.783 240.56 581.13 241.92 580.57 243.52C580.036 245.12 579.77 247.053 579.77 249.32C579.77 252.013 579.97 254.107 580.37 255.6C580.796 257.067 581.543 257.8 582.61 257.8ZM613.285 260.8C611.311 260.8 609.471 260.147 607.765 258.84C606.085 257.533 604.725 255.32 603.685 252.2C602.645 249.053 602.125 244.747 602.125 239.28C602.125 234.187 602.618 230.067 603.605 226.92C604.618 223.747 605.925 221.44 607.525 220C609.151 218.56 610.858 217.84 612.645 217.84C614.085 217.84 615.205 218.213 616.005 218.96C616.805 219.68 617.378 220.467 617.725 221.32C618.098 222.147 618.325 222.747 618.405 223.12V201.36H614.445V200H628.205V258.72H632.445V260H618.925L618.725 255.24C618.645 255.827 618.405 256.56 618.005 257.44C617.631 258.32 617.058 259.107 616.285 259.8C615.538 260.467 614.538 260.8 613.285 260.8ZM614.805 258.6C615.445 258.6 616.018 258.213 616.525 257.44C617.058 256.667 617.485 255.64 617.805 254.36C618.151 253.08 618.351 251.693 618.405 250.2V228.28C618.325 226.973 618.098 225.72 617.725 224.52C617.351 223.293 616.911 222.293 616.405 221.52C615.898 220.747 615.365 220.36 614.805 220.36C614.218 220.36 613.738 220.907 613.365 222C613.018 223.093 612.738 224.56 612.525 226.4C612.338 228.213 612.191 230.253 612.085 232.52C612.005 234.787 611.965 237.08 611.965 239.4C611.965 241.88 612.005 244.267 612.085 246.56C612.165 248.853 612.311 250.907 612.525 252.72C612.738 254.533 613.031 255.973 613.405 257.04C613.778 258.08 614.245 258.6 614.805 258.6ZM647.735 260.88C646.269 260.88 644.762 260.427 643.215 259.52C641.669 258.613 640.229 257.253 638.895 255.44C637.589 253.6 636.522 251.307 635.695 248.56C634.895 245.813 634.495 242.6 634.495 238.92C634.495 234.92 634.909 231.56 635.735 228.84C636.589 226.12 637.682 223.96 639.015 222.36C640.349 220.733 641.789 219.573 643.335 218.88C644.882 218.16 646.349 217.8 647.735 217.8C649.149 217.8 650.629 218.16 652.175 218.88C653.722 219.573 655.175 220.733 656.535 222.36C657.895 223.96 658.989 226.12 659.815 228.84C660.669 231.56 661.095 234.92 661.095 238.92C661.095 242.6 660.682 245.813 659.855 248.56C659.055 251.307 657.989 253.6 656.655 255.44C655.349 257.253 653.909 258.613 652.335 259.52C650.789 260.427 649.255 260.88 647.735 260.88ZM647.735 259.56C648.989 259.56 649.882 257.787 650.415 254.24C650.975 250.693 651.255 245.587 651.255 238.92C651.255 232.36 650.975 227.427 650.415 224.12C649.882 220.787 648.989 219.12 647.735 219.12C646.535 219.12 645.669 220.787 645.135 224.12C644.602 227.427 644.335 232.36 644.335 238.92C644.335 245.587 644.602 250.693 645.135 254.24C645.669 257.787 646.535 259.56 647.735 259.56ZM663.85 260V258.72H667.49V219.4H663.85V218.12H676.89L677.05 222.76C677.13 222.307 677.396 221.693 677.85 220.92C678.33 220.12 678.97 219.4 679.77 218.76C680.596 218.12 681.543 217.8 682.61 217.8C684.05 217.8 685.276 218.293 686.29 219.28C687.33 220.267 688.143 221.587 688.73 223.24C689.316 224.893 689.61 226.72 689.61 228.72C689.61 230.427 689.263 231.747 688.57 232.68C687.903 233.613 686.996 234.08 685.85 234.08C684.73 234.08 683.85 233.64 683.21 232.76C682.57 231.88 682.25 230.76 682.25 229.4C682.25 228.467 682.423 227.627 682.77 226.88C683.143 226.133 683.503 225.427 683.85 224.76C684.223 224.067 684.41 223.347 684.41 222.6C684.41 221.507 684.223 220.68 683.85 220.12C683.476 219.56 682.876 219.28 682.05 219.28C681.17 219.28 680.356 219.733 679.61 220.64C678.863 221.52 678.25 222.693 677.77 224.16C677.316 225.6 677.09 227.16 677.09 228.84V258.72H680.89V260H663.85Z" fill="white"/>
</svg>
